PathFileType	4	(X/Y/Z)	c:/Users/goper/Files/vsCode/490R/osim_files/C05/C05_Slow_05.trc
DataRate	CameraRate	NumFrames	NumMarkers	Units                	OrigDataRate	OrigDataStartFrame	OrigNumFrames
250.00	250.00	6	36	mm	250.0	1691	2705
                Frame#	Time	LPSIS			LASIS			LTH1			LTH2			LTH3			LTH4			LLFE			LMFE			LSH1			LSH2			LSH3			LSH4			LLMAL			LMMAL			LCAL			LMTP5			LTOE			LMTP1			RPSIS			RASIS			RTH1			RTH2			RTH3			RTH4			RLFE			RMFE			RSH1			RSH2			RSH3			RSH4			RLMAL			RMMAL			RCAL			RMTP1			RTOE			RMTP5		
		X1	Y1	Z1	X2	Y2	Z2	X3	Y3	Z3	X4	Y4	Z4	X5	Y5	Z5	X6	Y6	Z6	X7	Y7	Z7	X8	Y8	Z8	X9	Y9	Z9	X10	Y10	Z10	X11	Y11	Z11	X12	Y12	Z12	X13	Y13	Z13	X14	Y14	Z14	X15	Y15	Z15	X16	Y16	Z16	X17	Y17	Z17	X18	Y18	Z18	X19	Y19	Z19	X20	Y20	Z20	X21	Y21	Z21	X22	Y22	Z22	X23	Y23	Z23	X24	Y24	Z24	X25	Y25	Z25	X26	Y26	Z26	X27	Y27	Z27	X28	Y28	Z28	X29	Y29	Z29	X30	Y30	Z30	X31	Y31	Z31	X32	Y32	Z32	X33	Y33	Z33	X34	Y34	Z34	X35	Y35	Z35	X36	Y36	Z36

1691	6.76000	-2102.86768	1030.19836	286.68652	-2298.84595	986.41998	359.12875	-2195.65454	677.16760	385.19238	-2183.78003	617.53668	374.34317	-2120.15649	686.77332	387.55487	-2117.71973	624.50873	375.64395	-2129.72266	515.27588	358.58240	-2126.35596	509.74875	241.35777	-1954.49194	412.68561	365.14108	-1934.09448	375.47632	362.24564	-2005.62708	375.94214	376.89584	-1976.43274	343.28839	369.41660	-1824.04114	166.43295	336.87296	-1855.91589	167.21323	254.56744	-1758.50586	171.93132	282.79291	-1907.90625	41.41591	357.54565	-1946.82104	57.75600	294.54437	-1935.15308	52.21000	246.62094	-2111.07007	1036.20459	178.65332	-2306.98657	1003.98834	128.67509	-2316.62964	664.61328	71.85818	-2348.64380	613.95776	88.76180	-2383.00928	699.80786	80.13535	-2406.71533	643.34271	95.00169	0.00000	0.00000	0.00000	-2417.94189	549.38947	114.09392	-2371.14917	377.95096	88.27737	-2383.39844	332.46188	93.11290	-2431.56030	387.35260	97.54502	-2435.19238	341.20657	101.21145	-2439.73120	105.73478	137.58464	-2462.60425	121.65578	222.07521	-2382.68896	76.97152	189.88443	-2599.39258	64.51649	208.65593	-2615.18042	92.71958	160.13390	-2568.51733	52.37457	101.18595
1692	6.76400	-2107.83862	1030.58313	286.47754	-2303.89111	986.71246	358.36829	-2201.98071	676.95789	384.84808	-2190.27393	617.31201	373.32138	-2126.45312	686.23535	386.91406	-2124.30835	623.80157	375.16235	-2136.64355	514.86902	358.49863	-2134.37305	508.83429	241.23773	-1960.97571	414.19415	364.85727	-1940.31470	377.26532	362.18930	-2011.65112	376.89865	377.00668	-1982.45471	344.66653	369.80225	-1827.64429	169.21260	337.27957	-1859.65308	169.44016	255.02258	-1762.39294	176.27034	283.04459	-1908.86914	42.33853	357.33698	-1947.40332	57.85762	294.53262	-1935.85022	52.47138	246.60345	-2116.08350	1036.87231	178.46132	-2311.96948	1004.79382	128.02469	-2321.49756	665.69672	71.19794	-2353.39893	614.65930	88.12844	-2387.73267	700.80518	79.94422	-2411.37988	644.31256	94.84267	0.00000	0.00000	0.00000	-2421.97974	549.86157	113.72975	-2374.29517	378.46768	87.34044	-2386.94019	332.62350	92.50550	-2434.71680	387.40109	97.11166	-2437.64502	341.11929	101.47067	-2440.27808	105.72385	137.48898	-2463.17041	121.55000	221.97220	-2382.89307	77.14247	189.82152	-2599.42578	63.68723	209.12355	-2616.39819	91.67158	160.47552	-2568.88037	51.74024	101.22235
1693	6.76800	-2113.11353	1031.12305	286.25977	-2307.41016	986.34772	357.38495	-2208.62085	676.55847	384.20215	-2197.31323	617.02893	374.05099	-2132.80298	685.71521	386.37393	-2130.96558	623.33484	374.63034	-2144.46533	514.34552	358.42166	-2142.48755	507.85699	241.18790	-1967.65588	415.78262	364.76620	-1946.56714	378.92203	362.05777	-2017.81396	377.74124	377.17929	-1987.88660	345.68842	369.83783	-1831.50354	172.13828	337.66595	-1863.76428	171.83525	255.63425	-1766.18762	181.05597	283.33203	-1909.48621	42.94556	357.75613	-1948.23962	58.07467	294.53571	-1936.67627	52.86339	246.64960	-2121.37866	1037.52625	178.13274	-2316.70972	1005.60156	127.28111	-2326.14575	666.69159	70.66885	-2357.81934	615.60852	87.55009	-2391.83984	701.70276	79.72255	-2415.91138	645.13971	94.55706	0.00000	0.00000	0.00000	-2425.79468	550.24530	113.36742	-2377.51147	378.90591	86.54321	-2390.92358	332.64639	91.67976	-2437.93774	387.50195	96.76667	-2440.60474	341.10391	101.24832	-2440.74683	105.70497	137.39117	-2463.70776	121.41467	221.87202	-2383.06519	77.30022	189.73390	-2600.09619	62.58240	209.07941	-2616.97412	90.52485	160.72755	-2569.22534	51.19047	101.26212
1694	6.77200	-2118.21631	1031.50720	286.03619	-2313.85352	987.34766	356.67609	-2215.02783	676.51312	384.00650	-2204.16162	616.76654	373.89786	-2139.15601	685.08905	385.68167	-2137.87524	622.56769	374.18597	-2152.01709	513.84357	358.45554	-2150.85059	506.83948	241.12553	-1974.24121	417.35532	364.44138	0.00000	0.00000	0.00000	-2024.39185	378.59653	377.32773	-1994.32422	346.94196	370.34872	-1835.69250	175.21658	338.01712	-1867.89685	174.08092	256.03705	-1770.61731	185.65326	283.66916	-1910.55103	43.69504	357.81647	-1948.95996	58.50896	294.37292	-1937.38647	53.12391	246.64990	-2126.13599	1038.21619	177.81564	-2321.18457	1006.48322	126.61282	-2330.40796	667.56018	70.11388	-2361.96631	616.41125	86.97231	-2397.28833	702.51544	79.66254	-2420.19092	645.90436	94.13442	0.00000	0.00000	0.00000	-2429.56250	550.52856	112.99336	-2380.60522	379.36203	85.76965	-2393.77173	332.91968	91.10804	-2440.98242	387.42459	96.37611	-2442.61816	340.72449	101.12811	-2441.22119	105.66554	137.30600	-2464.22900	121.26758	221.83359	-2383.27417	77.39411	189.67001	-2600.40942	61.64477	209.30582	-2617.08179	89.48775	160.82106	-2569.55371	50.67711	101.36610
1695	6.77600	-2123.14014	1031.93237	285.75586	-2317.41821	987.08533	355.73196	-2221.52393	676.42303	383.83954	-2211.20093	616.53516	373.84387	-2145.63110	684.50104	385.01221	-2144.81543	621.96759	373.68289	-2159.57495	513.31360	358.45782	-2159.32837	505.74756	241.11162	-1981.40381	418.65417	364.14935	-1959.67981	382.16724	361.61371	-2030.90833	379.35904	377.47897	-2000.62695	348.21487	370.46268	-1840.05725	178.33134	338.35126	-1872.08606	176.38632	256.36407	-1775.21704	190.36879	283.96976	-1911.31543	44.69923	357.98538	-1950.05176	58.88982	294.35522	-1938.45056	53.68756	246.69777	-2131.09204	1038.84277	177.55989	-2328.37329	1008.10059	126.03911	-2333.62524	668.12006	70.14719	-2365.85620	616.99597	86.40910	-2401.32129	703.13995	79.31665	-2424.05737	646.41492	93.68337	0.00000	0.00000	0.00000	-2433.17041	550.72101	112.59702	-2383.62207	379.75980	85.09608	-2396.45239	333.25485	90.62690	-2443.74756	387.48938	96.06683	-2445.15967	340.61981	100.95401	-2441.65039	105.63913	137.29039	-2464.59937	121.15427	221.80730	-2383.40381	77.50693	189.59724	-2600.68237	60.77529	209.58513	-2617.56030	88.08835	161.63235	-2569.85083	50.27850	101.45902
1696	6.78000	-2128.17261	1032.27954	285.45215	-2322.27808	987.47900	354.86551	-2228.01416	676.24194	383.55753	-2218.19751	616.28125	373.77188	-2152.20093	683.87433	384.40057	-2151.90332	621.21680	373.23550	-2167.52466	512.68250	358.51041	-2167.99683	504.63138	241.16948	-1988.70667	419.93927	363.89771	-1966.63684	383.81259	361.50079	-2037.61414	380.18179	377.61295	-2006.55945	349.14178	370.38989	-1844.50220	181.56926	338.65726	-1876.43945	178.80838	256.67557	-1779.97620	195.26164	284.25458	-1912.52295	45.99443	358.13553	-1951.32666	59.40945	294.41846	-1939.78662	54.45903	246.73834	-2135.82129	1039.48767	177.19766	-2333.24316	1008.96027	125.31065	-2338.16455	668.88257	69.37231	-2369.70020	617.92133	85.75394	-2405.10303	703.56628	78.84544	-2432.21289	648.70111	91.68116	0.00000	0.00000	0.00000	-2436.65723	550.82404	112.17400	-2386.37646	380.14700	84.53230	-2399.06152	333.45261	90.24047	-2446.64502	387.42117	95.90900	-2447.57715	340.48007	100.85602	-2442.09741	105.60242	137.28381	-2464.95215	121.03689	221.76711	-2383.52417	77.60962	189.56960	-2600.47437	60.02486	210.16936	-2617.60083	87.06281	161.78596	-2570.14990	49.90254	101.55502
